# xmcd
#
# Track frame offsets:
#	150
#	9960
#	22732
#	32735
#	43285
#	56787
#	66177
#	75767
#	88790
#	106557
#	118115
#	130432
#
# Disc length: 1893
#
# Revision: 5
# Processed by: cddbd v1.5.2PL0 Copyright (c) Steve Scherf et al.
# Submitted via: Broken Cross Disk Manager 3.94.2201
#
DISCID=8e07630c
DTITLE=Dale Watson and his Lone Stars - Places I've Known, Places I've Been
DYEAR=1999
DGENRE=Country
TTITLE0=Louie's Lee's Liquor Lounge
TTITLE1=Charlie Our Shoeshine Man
TTITLE2=Blue Our Old Cell Block Guard
TTITLE3=Hey Don (support my favorite beertender)
TTITLE4=Lefty (Chavis County Jail)
TTITLE5=Rattlesnake Train
TTITLE6=Luther
TTITLE7=Johnny At The Door
TTITLE8=England To Texas
TTITLE9=Whatever Happened To Sam
TTITLE10=That Man In The Lloyd Cross Crease
TTITLE11=Roadtrain
EXTD=
EXTT0=
EXTT1=
EXTT2=
EXTT3=
EXTT4=
EXTT5=
EXTT6=
EXTT7=
EXTT8=
EXTT9=
EXTT10=
EXTT11=
PLAYORDER=
